<svg xmlns="http://www.w3.org/2000/svg" viewBox="0 0 64 64" fill="none">
  <path d="M32 4 L54 11 V31 C54 47 44 55 32 60 C20 55 10 47 10 31 V11 Z" fill="#0E1B33" stroke="#C9A34A" stroke-width="3" stroke-linejoin="round"/>
  <line x1="32" y1="16" x2="22" y2="26" stroke="#C9A34A" stroke-width="2"/>
  <line x1="32" y1="16" x2="42" y2="26" stroke="#C9A34A" stroke-width="2"/>
  <line x1="22" y1="26" x2="32" y2="36" stroke="#C9A34A" stroke-width="2"/>
  <line x1="42" y1="26" x2="32" y2="36" stroke="#C9A34A" stroke-width="2"/>
  <line x1="32" y1="36" x2="32" y2="42" stroke="#C9A34A" stroke-width="2"/>
  <circle cx="32" cy="16" r="3.2" fill="#C9A34A"/>
  <circle cx="22" cy="26" r="3.2" fill="#C9A34A"/>
  <circle cx="42" cy="26" r="3.2" fill="#C9A34A"/>
  <circle cx="32" cy="36" r="3.2" fill="#C9A34A"/>
  <path d="M17 42 H47 V46 H38 V49 H41 V52 H23 V49 H26 V46 H17 Z" fill="#C9A34A"/>
</svg>
